<svg height="511pt" viewBox="-69 1 511 511.999" width="511pt" xmlns="http://www.w3.org/2000/svg"><path d="m337.515625 74.472656-150.742187 25.839844v-92.8125h145.042968c18.628906 0 33.726563 15.101562 33.726563 33.726562 0 16.429688-11.835938 30.46875-28.027344 33.246094zm0 0" fill="#495560"/><path d="m20.367188 504.5c0-91.902344 74.503906-166.402344 166.40625-166.402344 91.898437 0 166.402343 74.5 166.402343 166.402344zm0 0" fill="#e3e3e3"/><path d="m207.394531 339.367188c-6.757812-.835938-13.640625-1.273438-20.621093-1.273438-91.902344 0-166.40625 74.503906-166.40625 166.40625h41.246093c0-84.917969 63.609375-154.976562 145.78125-165.132812zm0 0" fill="#d1d1d1"/><path d="m86.773438 371.488281v133.011719h200v-133.011719c-27.839844-20.960937-62.46875-33.390625-100-33.390625-37.535157 0-72.164063 12.429688-100 33.390625zm0 0" fill="#546370"/><path d="m206.792969 339.292969c-6.566407-.785157-13.246094-1.199219-20.019531-1.199219-37.535157 0-72.164063 12.433594-100 33.394531v43.035157c26.199218-40.683594 69.652343-69.203126 120.019531-75.230469zm0 0" fill="#495560"/><path d="m253.398438 504.5h-133.25v-46.503906c0-11.046875 8.953124-20 20-20h93.25c11.042968 0 20 8.953125 20 20zm0 0" fill="#fb695b"/><path d="m180.148438 437.996094h-40c-11.046876 0-20 8.953125-20 20v46.503906h40v-46.503906c0-11.046875 8.953124-20 20-20zm0 0" fill="#f85647"/><path d="m253.398438 378.402344c0 7.523437-4.207032 14.425781-10.921876 17.820312-11.789062 5.96875-32.085937 14.027344-55.703124 14.027344-23.621094 0-43.917969-8.058594-55.707032-14.027344-6.714844-3.394531-10.917968-10.296875-10.917968-17.820312v-48.25h133.25zm0 0" fill="#495560"/><path d="m365.542969 186.273438c0 98.730468-80.039063 178.769531-178.769531 178.769531-98.734376 0-178.773438-80.039063-178.773438-178.769531 0-98.734376 80.039062-178.773438 178.773438-178.773438 98.730468 0 178.769531 80.039062 178.769531 178.773438zm0 0" fill="#546370"/><path d="m252.320312 262.453125-22.304687-9.285156c-27.675781-11.527344-58.8125-11.527344-86.488281 0l-22.304688 9.285156c-26.699218 11.117187-56.117187-8.5-56.117187-37.417969 0-22.386718 18.148437-40.535156 40.535156-40.535156h162.261719c22.386718 0 40.535156 18.148438 40.535156 40.535156 0 28.917969-29.417969 48.535156-56.117188 37.417969zm0 0" fill="#ffddcf"/><path d="m105.105469 225.035156c0-22.386718 18.148437-40.535156 40.535156-40.535156h-40c-22.386719 0-40.535156 18.148438-40.535156 40.535156 0 28.917969 29.417969 48.535156 56.117187 37.417969l4.765625-1.984375c-12.203125-6.785156-20.882812-19.730469-20.882812-35.433594zm0 0" fill="#ffcbbe"/><path d="m48 186.273438c0-91.972657 69.453125-167.710938 158.773438-177.65625-6.570313-.730469-13.238282-1.117188-20-1.117188-98.734376 0-178.773438 80.039062-178.773438 178.769531 0 98.734375 80.039062 178.773438 178.773438 178.773438 6.761718 0 13.429687-.386719 20-1.117188-89.320313-9.945312-158.773438-85.683593-158.773438-177.652343zm0 0" fill="#495560"/><path d="m317.824219 308.097656c3.144531 2.691406 7.882812 2.324219 10.574219-.828125 28.789062-33.664062 44.644531-76.636719 44.644531-120.996093 0-38.828126-11.945313-74.910157-32.347657-104.785157 18.859376-4.140625 32.347657-20.769531 32.347657-40.261719 0-22.734374-18.496094-41.226562-41.226563-41.226562h-145.042968c-102.714844 0-186.273438 83.5625-186.273438 186.269531 0 72.398438 41.515625 135.273438 101.988281 166.085938-7.171875 3.984375-14.003906 8.441406-20.457031 13.324219-.011719.007812-.023438.015624-.035156.027343-42.871094 32.46875-69.125 83.726563-69.125 138.792969 0 4.140625 3.355468 7.5 7.5 7.5h332.804687c4.144531 0 7.5-3.359375 7.5-7.5 0-63.4375-34.734375-121.675781-89.597656-152.132812 13.078125-6.632813 25.410156-14.820313 36.695313-24.472657 3.148437-2.691406 3.519531-7.425781.824218-10.574219-2.6875-3.148437-7.425781-3.519531-10.570312-.824218-16.554688 14.152344-35.554688 24.902344-55.890625 31.847656 18.835937-17.882812 34.386719-44.992188 44.429687-79.003906 17.242188-7.300782 29.375-24.410156 29.375-44.308594 0-15.050781-6.96875-28.503906-17.839844-37.316406 0-.480469.003907-.960938.003907-1.445313 0-49.050781-11.160157-95.285156-31.425781-130.175781-7.382813-12.710938-15.679688-23.410156-24.65625-31.949219 67.410156 23.035157 116.023437 87.011719 116.023437 162.125 0 40.789063-14.578125 80.300781-41.050781 111.253907-2.691406 3.148437-2.324219 7.878906.828125 10.574218zm-302.324219-121.828125c0-75.117187 48.609375-139.089843 116.023438-162.125-8.976563 8.539063-17.273438 19.238281-24.65625 31.949219-20.269532 34.890625-31.429688 81.125-31.429688 130.175781 0 .484375.007812.960938.011719 1.441407-10.875 8.8125-17.84375 22.265624-17.84375 37.320312 0 13.117188 5.152343 25.335938 14.507812 34.414062 4.308594 4.179688 9.375 7.492188 14.839844 9.8125 10.046875 34.0625 25.613281 61.207032 44.472656 79.105469-67.363281-23.0625-115.925781-87.011719-115.925781-162.09375zm230.398438 310.730469h-118.25v-39.003906c0-6.894532 5.605468-12.5 12.5-12.5h93.25c6.890624 0 12.5 5.605468 12.5 12.5zm-12.5-66.503906h-93.25c-15.164063 0-27.5 12.335937-27.5 27.5v39.003906h-18.375v-121.6875c5.816406-4.179688 11.949218-7.984375 18.375-11.378906v14.46875c0 10.425781 5.757812 19.820312 15.027343 24.511718 13.375 6.769532 34.480469 14.835938 59.097657 14.835938 24.613281 0 45.71875-8.066406 59.09375-14.835938 9.269531-4.691406 15.03125-14.085937 15.03125-24.511718v-14.476563c6.421874 3.394531 12.554687 7.199219 18.375 11.375v121.699219h-18.375v-39.003906c0-15.164063-12.339844-27.5-27.5-27.5zm-54.125-28.039063c-18.464844-1.386719-34.308594-7.601562-44.820313-12.925781-4.199219-2.125-6.804687-6.386719-6.804687-11.128906v-15.480469c16.320312 5.476563 33.648437 8.742187 51.625 9.457031zm66.625-24.054687c0 4.742187-2.609376 9.003906-6.808594 11.128906-10.515625 5.320312-26.355469 11.539062-44.816406 12.925781v-30.070312c17.671874-.714844 35.046874-3.941407 51.625-9.488281zm-66.625-21.410156c-14.945313-2.117188-29.484376-10.511719-42.441407-24.636719-13.59375-14.816407-24.886719-35.179688-32.953125-59.289063.578125.023438 1.15625.042969 1.734375.042969 6.320313 0 12.542969-1.253906 18.492188-3.730469l22.304687-9.289062c10.535156-4.386719 21.558594-6.996094 32.863282-7.800782zm-100 30.53125v109.476562h-51.226563c2.003906-42.226562 20.859375-81.476562 51.226563-109.476562zm266.222656 109.476562h-51.222656v-109.484375c30.375 27.984375 49.222656 67.207031 51.222656 109.484375zm-108.785156-164.644531c-12.957032 14.125-27.496094 22.519531-42.4375 24.636719v-104.703126c11.300781.804688 22.324218 3.414063 32.859374 7.800782l22.304688 9.289062c5.949219 2.476563 12.171875 3.730469 18.492188 3.730469.582031 0 1.15625-.019531 1.734374-.042969-8.066406 24.105469-19.359374 44.46875-32.953124 59.289063zm31.21875-74.246094c-4.332032 0-8.613282-.867187-12.726563-2.578125l-22.304687-9.289062c-14.660157-6.101563-30.148438-9.203126-46.027344-9.21875-.03125 0-.066406-.003907-.101563-.003907-.03125 0-.066406.003907-.101562.003907-15.878907.011718-31.363281 3.117187-46.027344 9.21875l-22.304687 9.289062c-4.109376 1.710938-8.390626 2.578125-12.726563 2.578125-8.472656 0-16.875-3.433594-23.054687-9.429687-6.417969-6.226563-9.953126-14.625-9.953126-23.644532 0-18.21875 14.820313-33.035156 33.035157-33.035156h81.035156c.03125 0 .066406.003906.097656.003906s.0625-.003906.097657-.003906h81.035156c18.214844 0 33.03125 14.816406 33.03125 33.035156.003906 18.238282-14.804688 33.074219-33.003906 33.074219zm-14.222657-194.480469c18.027344 31.035156 28.34375 71.941406 29.316407 115.820313-4.757813-1.582031-9.839844-2.449219-15.117188-2.449219h-73.632812v-55.15625c0-4.144531-3.359376-7.5-7.5-7.5-4.144532 0-7.5 3.355469-7.5 7.5v55.15625h-73.632813c-5.28125 0-10.363281.867188-15.117187 2.449219.96875-43.878907 11.285156-84.785157 29.3125-115.820313 16.378906-28.199218 37.253906-44.996094 59.4375-48.097656v77.992188c0 4.140624 3.355468 7.5 7.5 7.5 4.140624 0 7.5-3.359376 7.5-7.5v-77.992188c22.183593 3.101562 43.054687 19.898438 59.433593 48.097656zm6.273438-48.628906h71.835937c14.460938 0 26.226563 11.765625 26.226563 26.226562 0 12.816407-9.164063 23.6875-21.792969 25.851563l-5.640625.96875c-18.84375-22.882813-43.027344-41.203125-70.628906-53.046875zm0 0"/><path d="m250.460938 203.753906c-4.144532 0-7.5 3.359375-7.5 7.5v11.355469c0 4.144531 3.355468 7.5 7.5 7.5 4.140624 0 7.5-3.355469 7.5-7.5v-11.355469c0-4.140625-3.359376-7.5-7.5-7.5zm0 0"/><path d="m123.082031 203.753906c-4.140625 0-7.5 3.359375-7.5 7.5v11.355469c0 4.144531 3.359375 7.5 7.5 7.5 4.144531 0 7.5-3.355469 7.5-7.5v-11.355469c0-4.140625-3.359375-7.5-7.5-7.5zm0 0"/></svg>