<svg height="512pt" viewBox="-48 0 511 512" width="512pt" xmlns="http://www.w3.org/2000/svg"><path d="m407.132812 383.847656h-3.214843c-44.988281 0-81.460938-36.46875-81.460938-81.460937v-253.515625c46.765625 0 84.675781 37.910156 84.675781 84.671875zm0 0" fill="#f1e12b"/><path d="m46.183594 504.5c0-89.128906 72.253906-161.382812 161.382812-161.382812s161.382813 72.253906 161.382813 161.382812zm0 0" fill="#a57cd2"/><path d="m227.566406 344.351562c-6.554687-.808593-13.226562-1.234374-20-1.234374-89.128906 0-161.382812 72.253906-161.382812 161.382812h40c0-82.355469 61.691406-150.296875 141.382812-160.148438zm0 0" fill="#996acc"/><path d="m207.566406 343.117188c-23.085937 0-45.035156 4.859374-64.894531 13.59375l22.675781 147.789062h84.4375l22.675782-147.792969c-19.859376-8.730469-41.808594-13.589843-64.894532-13.589843zm0 0" fill="#e3e3e3"/><path d="m207.566406 328.761719h-63.269531l36.769531 65.488281h53l36.769532-65.488281zm0 0" fill="#fcb17a"/><path d="m272.460938 356.707031 46.4375 67.308594c2.234374 3.238281 2.363281 7.480469.332031 10.84375l-41.996094 69.640625h-27.449219zm0 0" fill="#b18cd9"/><path d="m142.671875 356.707031-46.441406 67.308594c-2.230469 3.238281-2.359375 7.480469-.332031 10.84375l42 69.636719h27.449218zm0 0" fill="#b18cd9"/><path d="m144.296875 328.761719 63.269531 65.488281-30.355468 27.753906c-2.375 2.171875-6.152344 1.566406-7.730469-1.238281l-34.132813-60.625zm0 0" fill="#f4f4f4"/><path d="m270.835938 328.761719-63.269532 65.488281 30.355469 27.753906c2.375 2.171875 6.152344 1.566406 7.730469-1.238281l34.132812-60.625zm0 0" fill="#f4f4f4"/><path d="m407.132812 205.523438c0 18.980468-15.386718 34.367187-34.371093 34.367187-18.980469 0-34.367188-15.386719-34.367188-34.367187 0-18.980469 15.386719-34.367188 34.367188-34.367188 18.984375 0 34.371093 15.386719 34.371093 34.367188zm0 0" fill="#ffbd86"/><path d="m76.738281 205.523438c0 18.980468-15.386719 34.367187-34.371093 34.367187-18.980469 0-34.367188-15.386719-34.367188-34.367187 0-18.980469 15.386719-34.367188 34.367188-34.367188 18.984374 0 34.371093 15.386719 34.371093 34.367188zm0 0" fill="#ffbd86"/><path d="m380.941406 195.875c0 95.753906-77.621094 173.378906-173.375 173.378906s-173.378906-77.625-173.378906-173.378906c0-95.75 77.625-173.375 173.378906-173.375s173.375 77.625 173.375 173.375zm0 0" fill="#fed2a4"/><path d="m74.191406 195.875v-110.765625c-24.976562 30.039063-40 68.648437-40 110.765625 0 95.753906 77.621094 173.378906 173.375 173.378906 6.765625 0 13.4375-.402344 20-1.15625-86.332031-9.917968-153.375-83.234375-153.375-172.222656zm0 0" fill="#ffbd86"/><path d="m207.566406 7.5c-98.367187 0-179.367187 75.785156-187.675781 172.035156 7.898437 0 14.296875 6.398438 14.296875 14.296875v86.667969c0 22.089844 17.910156 40 40 40v-178s83.121094 58.933594 266.753906 62.820312v115.179688c22.089844 0 40-17.910156 40-40v-86.667969c0-7.898437 6.402344-14.296875 14.296875-14.296875-8.308593-96.25-89.308593-172.035156-187.671875-172.035156zm0 0" fill="#f8ea69"/><path d="m19.890625 179.535156c7.898437 0 14.300781 6.398438 14.300781 14.296875v86.667969c0 22.089844 17.90625 40 40 40v-178c-38.292968-31.832031 32.875-135 133.375-135-98.367187 0-179.363281 75.785156-187.675781 172.035156zm0 0" fill="#f4e74d"/><path d="m276.933594 251.574219h-11.355469c-4.140625 0-7.5-3.355469-7.5-7.5 0-4.140625 3.359375-7.5 7.5-7.5h11.355469c4.140625 0 7.5 3.359375 7.5 7.5 0 4.144531-3.359375 7.5-7.5 7.5zm0 0" fill="#fb695b"/><path d="m149.554688 251.574219h-11.355469c-4.140625 0-7.5-3.355469-7.5-7.5 0-4.140625 3.359375-7.5 7.5-7.5h11.355469c4.140624 0 7.5 3.359375 7.5 7.5 0 4.144531-3.359376 7.5-7.5 7.5zm0 0" fill="#fb695b"/><path d="m230.828125 245.921875c2.0625-3.589844.828125-8.175781-2.765625-10.238281-3.589844-2.066406-8.175781-.828125-10.238281 2.761718-2.109375 3.667969-6.039063 5.941407-10.257813 5.941407s-8.148437-2.277344-10.253906-5.941407c-2.066406-3.589843-6.652344-4.828124-10.242188-2.765624-3.589843 2.066406-4.828124 6.652343-2.765624 10.242187 4.777343 8.304687 13.6875 13.464844 23.261718 13.464844 9.570313 0 18.484375-5.160157 23.261719-13.464844zm0 0"/><path d="m143.875 203.753906c-4.140625 0-7.5 3.359375-7.5 7.5v11.355469c0 4.140625 3.359375 7.5 7.5 7.5 4.144531 0 7.5-3.359375 7.5-7.5v-11.355469c0-4.140625-3.355469-7.5-7.5-7.5zm0 0"/><path d="m388.640625 69.390625c-16.128906-16.636719-37.554687-26.441406-60.566406-27.824219-34.359375-26.902344-76.574219-41.566406-120.507813-41.566406-46.671875 0-91.914062 16.757812-127.382812 47.183594-3.144532 2.699218-3.503906 7.433594-.808594 10.578125 2.699219 3.140625 7.433594 3.503906 10.578125.808593 32.75-28.097656 74.519531-43.570312 117.613281-43.570312 90.839844 0 168.4375 69.152344 179.511719 158.617188-7.988281 3.238281-13.636719 11.078124-13.636719 20.214843v86.667969c0 15.339844-10.683594 28.230469-25 31.625v-5.421875c0-.011719 0-.027344 0-.042969v-101.339844c0-4.082031-3.261718-7.414062-7.339844-7.5-93.410156-1.976562-159.84375-18.585937-199.125-32.171874-42.523437-14.707032-63.253906-29.128907-63.449218-29.265626-2.289063-1.625-5.289063-1.832031-7.78125-.546874-2.492188 1.289062-4.054688 3.859374-4.054688 6.664062v164.136719.085937 5.40625c-14.320312-3.394531-25-16.289062-25-31.628906v-86.667969c0-9.132812-5.652344-16.976562-13.640625-20.210937 4.371094-35.613282 19.101563-68.710938 42.832031-96.082032 2.714844-3.128906 2.378907-7.863281-.75-10.578124-3.132812-2.714844-7.867187-2.375-10.582031.753906-26.632812 30.71875-42.792969 68.109375-46.855469 108.292968-7.777343 7.820313-12.195312 18.40625-12.195312 29.519532 0 17.328125 10.515625 32.539062 26.191406 38.832031v36.140625c0 26.191406 21.308594 47.5 47.5 47.5 2.636719 0 4.957032-1.367188 6.292969-3.429688 13.308594 13.15625 28.429687 24.058594 44.816406 32.429688-24.691406 13.792969-45.59375 33.578125-60.730469 57.609375-16.933593 26.886719-25.886718 57.96875-25.886718 89.890625 0 4.140625 3.359375 7.5 7.5 7.5h91.707031.015625.011719 27.398437.019532.015624 84.429688.011719.023437 27.394532.015624.015626 91.707031c4.140625 0 7.5-3.359375 7.5-7.5 0-31.9375-8.960938-63.035156-25.910157-89.933594-15.140624-24.015625-36.03125-43.78125-60.707031-57.566406 11.253907-5.753906 21.921875-12.6875 31.808594-20.734375 13.546875 32.933594 45.886719 55.082031 82.277344 55.082031h3.214843c4.140626 0 7.5-3.355468 7.5-7.5v-49.347656c0-4.144531-3.359374-7.5-7.5-7.5-4.144531 0-7.5 3.355469-7.5 7.5v41.726562c-30.28125-1.75-56.503906-21.914062-65.964843-50.683593.328125-.320313.652343-.648438.980469-.972657 1.335937 2.0625 3.652343 3.429688 6.292968 3.429688 26.191406 0 47.5-21.308594 47.5-47.5v-36.144531c4.117188-1.652344 7.882813-3.917969 11.191406-6.679688v68.824219c0 4.140625 3.355469 7.5 7.5 7.5 4.140626 0 7.5-3.359375 7.5-7.5v-172.957031c0-24.082031-9.230468-46.863281-25.992187-64.152344zm-373.140625 136.132813c0-6.6875 2.496094-13.082032 6.929688-17.996094 2.496093 1.007812 4.261718 3.453125 4.261718 6.304687v33.515625c-6.867187-4.925781-11.191406-12.929687-11.191406-21.824218zm66.191406 98.363281v-148.089844c10.675782 5.910156 28.6875 14.738281 54.546875 23.738281 28.742188 10 71.59375 21.578125 128.414063 28.164063-.574219 1.058593-.898438 2.269531-.898438 3.554687v11.355469c0 4.140625 3.359375 7.5 7.5 7.5s7.5-3.359375 7.5-7.5v-11.355469c0-.722656-.109375-1.417968-.296875-2.082031 17.152344 1.671875 35.472657 2.882813 54.984375 3.460937v91.253907c-31.601562 36.800781-77.316406 57.867187-125.875 57.867187s-94.277344-21.066406-125.875-57.867187zm176.832032 193.113281 17.664062-115.132812c.003906-.019532.003906-.039063.007812-.0625l2.007813-3.566407 34.523437 50.039063c.558594.808594.589844 1.871094.082032 2.710937l-39.8125 66.011719zm-86.742188 0-11.988281-78.152344 3.152343 5.597656c1.878907 3.339844 5.128907 5.605469 8.914063 6.210938.667969.105469 1.335937.160156 2 .160156 3.097656 0 6.082031-1.148437 8.410156-3.277344l25.296875-23.128906 25.292969 23.128906c2.332031 2.128907 5.316406 3.277344 8.410156 3.277344.664063 0 1.332031-.054687 2-.160156 3.785157-.605469 7.035157-2.871094 8.917969-6.210938l3.148438-5.59375-11.988282 78.148438zm-29.648438 0-39.8125-66.011719c-.503906-.839843-.472656-1.902343.085938-2.710937l34.523438-50.039063 2.003906 3.554688 17.675781 115.207031zm98.527344-82.65625-22.34375-20.429688 18.9375-19.597656c10.363282-1.714844 20.5-4.332031 30.324219-7.78125zm-33.09375-30.886719-6.605468-6.835937c2.195312.078125 4.398437.132812 6.605468.132812 2.207032 0 4.40625-.054687 6.605469-.132812zm-29.6875-9.140625 18.9375 19.601563-22.347656 20.429687-26.914062-47.808594c9.820312 3.445313 19.960937 6.0625 30.324218 7.777344zm-59.96875 5.074219-27.851562 40.367187c-3.898438 5.648438-4.125 13.097657-.582032 18.976563l35.140626 58.265625h-70.753907c2.261719-47.460938 25.933594-90.402344 64.046875-117.609375zm243.359375 117.609375h-70.753906l35.140625-58.265625c3.542969-5.878906 3.316406-13.328125-.582031-18.976563l-27.855469-40.371093c38.117188 27.203125 61.789062 70.144531 64.050781 117.613281zm-11.5-435.703125c29.3125 10.964844 49.863281 39.089844 49.863281 72.246094v23.824219c-7.199218-35.976563-24.414062-69.214844-49.863281-96.070313zm38.671875 166.050781v-33.515625c0-2.851562 1.769532-5.296875 4.261719-6.304687 4.433594 4.914062 6.929687 11.308594 6.929687 17.996094 0 8.894531-4.324218 16.898437-11.191406 21.824218zm0 0"/></svg>