<svg height="512pt" viewBox="-44 0 512 512.001" width="512pt" xmlns="http://www.w3.org/2000/svg"><path d="m345.042969 231.660156h60.566406c5.695313 0 10.308594-4.617187 10.308594-10.3125v-50.253906c0-5.695312-4.613281-10.308594-10.308594-10.308594h-60.566406zm0 0" fill="#495560"/><path d="m78.375 231.660156h-60.5625c-5.695312 0-10.3125-4.617187-10.3125-10.3125v-50.253906c0-5.695312 4.617188-10.308594 10.3125-10.308594h60.5625zm0 0" fill="#3d4751"/><path d="m45.304688 504.5c0-91.902344 74.503906-166.402344 166.40625-166.402344 91.902343 0 166.402343 74.5 166.402343 166.402344zm0 0" fill="#e3e3e3"/><path d="m232.332031 339.367188c-6.757812-.835938-13.636719-1.269532-20.621093-1.269532-91.902344 0-166.40625 74.5-166.40625 166.402344h41.246093c0-84.917969 63.613281-154.976562 145.78125-165.132812zm0 0" fill="#d1d1d1"/><path d="m94.457031 386.429688h34.148438c9.628906 0 17.433593 7.804687 17.433593 17.433593 0 9.628907 7.804688 17.4375 17.433594 17.4375h96.476563c9.628906 0 17.433593-7.808593 17.433593-17.4375 0-9.625 7.804688-17.433593 17.433594-17.433593h34.148438c-30.082032-29.871094-71.507813-48.332032-117.253906-48.332032-45.742188 0-87.171876 18.460938-117.253907 48.332032zm0 0" fill="#495560"/><path d="m134.621094 387.519531c25.617187-25.910156 59.671875-43.449219 97.714844-48.152343-6.757813-.835938-13.640626-1.269532-20.625-1.269532-45.742188 0-87.171876 18.460938-117.253907 48.332032h34.148438c2.117187 0 4.136719.398437 6.015625 1.089843zm0 0" fill="#3d4751"/><path d="m390.484375 186.273438c0 98.730468-80.039063 178.769531-178.773437 178.769531-98.734376 0-178.773438-80.039063-178.773438-178.769531 0-98.734376 80.039062-178.773438 178.773438-178.773438 98.734374 0 178.773437 80.039062 178.773437 178.773438zm0 0" fill="#f4f4f4"/><path d="m74.183594 186.273438c0-91.757813 69.132812-167.355469 158.148437-177.582032-6.765625-.777344-13.644531-1.191406-20.621093-1.191406-98.734376 0-178.773438 80.039062-178.773438 178.773438 0 98.730468 80.039062 178.769531 178.773438 178.769531 6.976562 0 13.855468-.410157 20.621093-1.191407-89.015625-10.222656-158.148437-85.824218-158.148437-177.578124zm0 0" fill="#e3e3e3"/><path d="m210.570312 47.503906c-74.867187.605469-136.207031 61.265625-137.605468 136.125-1.050782 56.128906 31.414062 104.933594 78.6875 127.722656 5.792968 2.792969 12.671875-.632812 14.042968-6.917968l6.464844-29.679688c1-4.597656 5.066406-7.871094 9.769532-7.871094h57.390624c4.703126 0 8.769532 3.273438 9.773438 7.871094l6.664062 30.613282c1.371094 6.285156 8.214844 9.613281 14.054688 6.910156 47.582031-22.023438 80.671875-70.21875 80.671875-126.003906 0-76.898438-62.875-139.390626-139.914063-138.769532zm0 0" fill="#546370"/><path d="m112.9375 186.273438c0-69.742188 51.714844-127.621094 118.804688-137.332032-6.910157-1.003906-13.976563-1.496094-21.171876-1.4375-74.867187.605469-136.207031 61.265625-137.609374 136.125-1.046876 56.128906 31.417968 104.933594 78.6875 127.722656 5.792968 2.792969 12.675781-.632812 14.046874-6.917968l1.738282-7.992188c-33.105469-25.382812-54.496094-65.324218-54.496094-110.167968zm0 0" fill="#495560"/><path d="m328.9375 204.390625c0 22.78125-18.464844 41.246094-41.242188 41.246094-22.78125 0-41.246093-18.464844-41.246093-41.246094 0-22.777344 18.464843-41.246094 41.246093-41.246094 22.777344 0 41.242188 18.46875 41.242188 41.246094zm0 0" fill="#59c2e8"/><path d="m277.382812 204.390625c0-17.304687 10.664063-32.117187 25.777344-38.234375-4.777344-1.933594-9.996094-3.011719-15.46875-3.011719-22.777344 0-41.242187 18.46875-41.242187 41.246094 0 22.78125 18.464843 41.246094 41.242187 41.246094 5.472656 0 10.691406-1.074219 15.46875-3.011719-15.113281-6.117188-25.777344-20.925781-25.777344-38.234375zm0 0" fill="#34b6e2"/><path d="m252.957031 441.296875c0 22.78125-18.46875 41.246094-41.246093 41.246094-22.78125 0-41.246094-18.464844-41.246094-41.246094 0-22.777344 18.464844-41.242187 41.246094-41.242187 22.777343 0 41.246093 18.464843 41.246093 41.242187zm0 0" fill="#59c2e8"/><path d="m201.398438 441.296875c0-17.304687 10.667968-32.113281 25.777343-38.234375-4.777343-1.933594-9.992187-3.007812-15.464843-3.007812-22.78125 0-41.246094 18.464843-41.246094 41.242187 0 22.78125 18.464844 41.246094 41.246094 41.246094 5.46875 0 10.6875-1.074219 15.464843-3.011719-15.109375-6.117188-25.777343-20.925781-25.777343-38.234375zm0 0" fill="#34b6e2"/><path d="m180.066406 204.390625c0 22.78125-18.46875 41.246094-41.246094 41.246094-22.78125 0-41.246093-18.464844-41.246093-41.246094 0-22.777344 18.464843-41.246094 41.246093-41.246094 22.777344 0 41.246094 18.46875 41.246094 41.246094zm0 0" fill="#59c2e8"/><path d="m128.507812 204.390625c0-17.304687 10.664063-32.117187 25.777344-38.234375-4.777344-1.933594-9.992187-3.011719-15.464844-3.011719-22.78125 0-41.246093 18.46875-41.246093 41.246094 0 22.78125 18.464843 41.246094 41.246093 41.246094 5.46875 0 10.6875-1.074219 15.464844-3.011719-15.113281-6.117188-25.777344-20.925781-25.777344-38.234375zm0 0" fill="#34b6e2"/><path d="m409.421875 153.703125v-36.703125c0-4.144531-3.359375-7.5-7.5-7.5-4.144531 0-7.5 3.355469-7.5 7.5v32.972656c-16.9375-85.394531-92.417969-149.972656-182.710937-149.972656-91.457032 0-167.730469 66.253906-183.347657 153.28125h-10.550781c-9.820312 0-17.8125 7.992188-17.8125 17.8125v50.253906c0 9.820313 7.992188 17.8125 17.8125 17.8125h15.285156c14.636719 49.34375 49.199219 90.203125 94.332032 113.199219-27.105469 15.007813-49.609376 36.851563-65.519532 63.757813-2.109375 3.566406-.925781 8.164062 2.640625 10.273437 1.195313.707031 2.511719 1.042969 3.808594 1.042969 2.5625 0 5.0625-1.316406 6.464844-3.683594 6.441406-10.898438 14.085937-20.875 22.734375-29.820312h31.046875c5.476562 0 9.933593 4.457031 9.933593 9.933593 0 13.75 11.183594 24.9375 24.933594 24.9375h1.125c-1.058594 3.988281-1.632812 8.179688-1.632812 12.5 0 26.875 21.867187 48.742188 48.746094 48.742188 26.878906 0 48.746093-21.867188 48.746093-48.742188 0-4.320312-.574219-8.511719-1.632812-12.5h1.125c13.75 0 24.933593-11.1875 24.933593-24.9375 0-5.476562 4.457032-9.933593 9.933594-9.933593h30.972656c26.503907 27.417968 42.796876 63.945312 44.648438 103.070312h-317.457031c.800781-17.3125 4.371093-34.1875 10.652343-50.273438 1.503907-3.855468-.398437-8.207031-4.257812-9.710937s-8.207031.398437-9.714844 4.257813c-7.863281 20.144531-11.855468 41.417968-11.855468 63.226562 0 4.144531 3.359374 7.5 7.5 7.5h332.808593c4.144531 0 7.5-3.355469 7.5-7.5 0-46.878906-18.984375-90.949219-51.050781-123.046875-.234375-.261719-.484375-.511719-.753906-.738281-11.136719-11.011719-23.820313-20.589844-37.816406-28.355469 45.132812-22.996094 79.691406-63.855469 94.328124-113.199219h15.289063c9.820313 0 17.808594-7.988281 17.808594-17.8125v-50.25c.003906-8.515625-6.003907-15.644531-13.996094-17.394531zm-391.609375 70.457031c-1.550781 0-2.8125-1.261718-2.8125-2.8125v-50.253906c0-1.550781 1.261719-2.8125 2.8125-2.8125h8.496094c-.566406 5.921875-.871094 11.921875-.871094 17.988281 0 12.980469 1.339844 25.652344 3.878906 37.886719h-11.503906zm193.898438 250.882813c-18.609376 0-33.746094-15.136719-33.746094-33.746094 0-18.605469 15.136718-33.742187 33.746094-33.742187 18.605468 0 33.746093 15.136718 33.746093 33.742187 0 18.609375-15.140625 33.746094-33.746093 33.746094zm97.359374-96.113281h-14.253906c-13.75 0-24.933594 11.1875-24.933594 24.933593 0 5.480469-4.457031 9.9375-9.933593 9.9375h-8.019531c-8.792969-12.820312-23.539063-21.246093-40.21875-21.246093-16.683594 0-31.429688 8.425781-40.222657 21.246093h-8.015625c-5.480468 0-9.933594-4.457031-9.933594-9.9375 0-13.746093-11.1875-24.933593-24.9375-24.933593h-14.335937c9.335937-7.242188 19.515625-13.46875 30.398437-18.539063.125-.0625.242188-.128906.367188-.195313 20.710938 7.96875 43.191406 12.347657 66.675781 12.347657 23.46875 0 45.929688-4.371094 66.628907-12.328125 11.0625 5.113281 21.34375 11.417968 30.734374 18.714844zm-97.359374-21.386719c-94.4375 0-171.273438-76.832031-171.273438-171.269531 0-94.441407 76.835938-171.273438 171.273438-171.273438s171.273437 76.832031 171.273437 171.273438c0 94.4375-76.835937 171.269531-171.273437 171.269531zm196.710937-136.195313c0 1.550782-1.261719 2.8125-2.8125 2.8125h-11.503906c2.539062-12.238281 3.878906-24.90625 3.878906-37.886718 0-6.070313-.304687-12.070313-.875-17.988282h8.5c1.550781 0 2.8125 1.261719 2.8125 2.8125zm0 0"/><path d="m325 93.835938c-2.621094-3.207032-7.34375-3.679688-10.554688-1.058594-3.207031 2.621094-3.683593 7.34375-1.0625 10.550781 19.085938 23.355469 29.597657 52.808594 29.597657 82.945313 0 50.945312-29.957031 97.734374-76.320313 119.199218-1.003906.464844-1.851562.1875-2.265625-.023437-.484375-.238281-1.101562-.722657-1.308593-1.679688l-6.667969-30.613281c-1.738281-7.980469-8.929688-13.777344-17.097657-13.777344h-57.394531c-8.167969 0-15.359375 5.796875-17.097656 13.777344l-6.464844 29.683594c-.226562 1.042968-.957031 1.539062-1.371093 1.738281-.394532.191406-1.191407.449219-2.085938.019531-46.183594-22.265625-75.402344-69.691406-74.445312-120.828125 1.316406-70.433593 59.710937-128.199219 130.167968-128.765625 30.511719-.238281 60.367188 10.261719 84.015625 29.589844 3.207031 2.621094 7.933594 2.144531 10.554688-1.0625 2.621093-3.207031 2.144531-7.933594-1.0625-10.554688-26.050781-21.289062-58.839844-32.976562-92.457031-32.976562-.386719 0-.78125.003906-1.167969.003906-38.175781.308594-74.25 15.359375-101.570313 42.386719-27.320312 27.023437-42.761718 62.929687-43.476562 101.097656-1.066406 56.980469 31.484375 109.820313 82.929687 134.621094 4.816407 2.324219 10.347657 2.304687 15.171875-.046875 4.859375-2.367188 8.304688-6.753906 9.457032-12.03125l6.460937-29.679688c.25-1.140624 1.277344-1.96875 2.445313-1.96875h57.390624c1.167969 0 2.195313.828126 2.441407 1.96875l6.667969 30.609376c1.136718 5.207031 4.519531 9.554687 9.289062 11.921874 2.472656 1.230469 5.144531 1.847657 7.820312 1.847657 2.523438 0 5.054688-.550781 7.421876-1.648438 51.648437-23.90625 85.023437-76.039062 85.023437-132.808593 0-33.585938-11.714844-66.414063-32.984375-92.4375zm0 0"/><path d="m238.949219 204.390625c0 26.878906 21.867187 48.746094 48.746093 48.746094 26.875 0 48.742188-21.867188 48.742188-48.746094s-21.867188-48.746094-48.742188-48.746094c-26.878906 0-48.746093 21.867188-48.746093 48.746094zm82.488281 0c0 18.605469-15.136719 33.746094-33.742188 33.746094-18.609374 0-33.746093-15.140625-33.746093-33.746094s15.136719-33.746094 33.746093-33.746094c18.605469 0 33.742188 15.136719 33.742188 33.746094zm0 0"/><path d="m90.074219 204.390625c0 26.878906 21.867187 48.746094 48.746093 48.746094 26.878907 0 48.746094-21.867188 48.746094-48.746094s-21.867187-48.746094-48.746094-48.746094c-26.878906 0-48.746093 21.867188-48.746093 48.746094zm82.492187 0c0 18.605469-15.140625 33.746094-33.746094 33.746094-18.609374 0-33.746093-15.140625-33.746093-33.746094s15.136719-33.746094 33.746093-33.746094c18.605469 0 33.746094 15.136719 33.746094 33.746094zm0 0"/></svg>