<svg height="512pt" viewBox="0 0 512 512" width="512pt" xmlns="http://www.w3.org/2000/svg"><path d="m386.28125 235.875h-260.574219c0 80.125-38.417969 268.625-38.417969 268.625h337.410157s-38.417969-188.5-38.417969-268.625zm0 0" fill="#e83826"/><path d="m325.207031 235.875h-138.421875c0 80.125-20.410156 268.625-20.410156 268.625h179.238281s-20.40625-188.5-20.40625-268.625zm0 0" fill="#ff9a5c"/><path d="m186.78125 235.875c0 80.125-20.40625 268.625-20.40625 268.625h40s20.40625-188.5 20.40625-268.625zm0 0" fill="#ff8c42"/><path d="m157.03125 7.5c-6.363281 0-11.339844 5.472656-10.742188 11.804688l8.496094 89.695312h49.300782l-37.007813-94.640625c-1.617187-4.136719-5.605469-6.859375-10.046875-6.859375zm0 0" fill="#495560"/><path d="m354.957031 7.5c6.359375 0 11.339844 5.472656 10.742188 11.804688l-8.496094 89.695312h-49.300781l37.007812-94.640625c1.617188-4.136719 5.605469-6.859375 10.046875-6.859375zm0 0" fill="#495560"/><path d="m351.203125 116.707031 129.753906-105.960937c2.570313-2.097656 5.789063-3.246094 9.113281-3.246094 10.433594 0 17.40625 10.746094 13.15625 20.277344l-29.535156 66.210937c-1.46875 3.296875-1.652344 7.023438-.503906 10.441407l28.890625 86.339843c3.945313 11.796875-7.902344 22.714844-19.335937 17.816407l-7.820313-3.347657c-6.382813-2.738281-13.808594-.527343-17.660156 5.253907l-40.988281 61.507812-68.84375-137.6875c-3.015626-6.03125-1.449219-13.339844 3.773437-17.605469zm0 0" fill="#f54432"/><path d="m160.785156 116.707031-129.753906-105.960937c-2.570312-2.097656-5.792969-3.246094-9.113281-3.246094-10.433594 0-17.410157 10.746094-13.15625 20.277344l29.535156 66.210937c1.46875 3.296875 1.648437 7.023438.503906 10.441407l-28.890625 86.339843c-3.949218 11.796875 7.902344 22.714844 19.335938 17.816407l7.816406-3.347657c6.386719-2.738281 13.8125-.527343 17.664062 5.253907l40.988282 61.507812 68.84375-137.6875c3.015625-6.03125 1.445312-13.339844-3.773438-17.605469zm0 0" fill="#f54432"/><path d="m429.371094 235.875c0 95.753906-77.625 133.378906-173.378906 133.378906-95.753907 0-173.375-37.625-173.375-133.378906 0-95.75 77.625-213.375 173.378906-213.375 95.75 0 173.375 117.625 173.375 213.375zm0 0" fill="#fb695b"/><path d="m122.617188 235.875c0-88.984375 67.046874-196.84375 153.378906-211.640625-6.566406-1.125-13.234375-1.734375-20-1.734375-95.753906 0-173.378906 117.625-173.378906 213.378906s77.625 133.375 173.378906 133.375c6.765625 0 13.433594-.195312 20-.578125-86.332032-5.039062-153.378906-43.8125-153.378906-132.800781zm0 0" fill="#f85647"/><path d="m299.726562 276.785156c0-21.84375-19.578124-39.546875-43.730468-39.546875-24.15625 0-43.734375 17.703125-43.734375 39.546875 0 21.839844 19.578125 39.546875 43.734375 39.546875 24.152344 0 43.730468-17.707031 43.730468-39.546875zm0 0" fill="#495560"/><path d="m299.726562 329c10.535157 0 24.535157-63.734375 24.535157-63.734375s-19.0625-11.78125-24.535157-11.78125c-5.472656 0-24.53125 11.78125-24.53125 11.78125s13.996094 63.734375 24.53125 63.734375zm0 0" fill="#f4f4f4"/><path d="m212.261719 329c10.53125 0 24.53125-63.734375 24.53125-63.734375s-19.0625-11.78125-24.53125-11.78125c-5.472657 0-24.535157 11.78125-24.535157 11.78125s14 63.734375 24.535157 63.734375zm0 0" fill="#f4f4f4"/><path d="m255.996094 182.324219c-57.496094 0-130.773438 36.488281-104.105469 82.890625 26.671875 46.398437 67.871094 8.8125 104.105469 8.8125 36.230468 0 77.429687 37.585937 104.101562-8.8125 26.667969-46.402344-46.609375-82.890625-104.101562-82.890625zm0 0" fill="#f85647"/><path d="m191.890625 265.214844c-23.644531-41.140625 31.273437-74.484375 84.105469-81.515625-6.757813-.902344-13.480469-1.375-20-1.375-57.496094 0-130.773438 36.488281-104.105469 82.890625 15.808594 27.5 36.722656 25.496094 58.675781 19.300781-6.75-3.449219-13.039062-9.496094-18.675781-19.300781zm0 0" fill="#f54432"/><path d="m319.683594 181.179688c4.140625 0 7.5-3.355469 7.5-7.5v-11.355469c0-4.140625-3.359375-7.5-7.5-7.5-4.144532 0-7.5 3.359375-7.5 7.5v11.355469c0 4.140624 3.355468 7.5 7.5 7.5zm0 0"/><path d="m192.304688 181.179688c4.140624 0 7.5-3.355469 7.5-7.5v-11.355469c0-4.140625-3.359376-7.5-7.5-7.5-4.140626 0-7.5 3.359375-7.5 7.5v11.355469c0 4.140624 3.359374 7.5 7.5 7.5zm0 0"/><path d="m480.296875 102.050781c-.550781-1.644531-.464844-3.421875.242187-5.007812l29.535157-66.210938c3.039062-6.804687 2.429687-14.597656-1.628907-20.847656-4.054687-6.253906-10.925781-9.984375-18.375-9.984375-5.035156 0-9.957031 1.753906-13.859374 4.9375l-95.914063 78.328125c-3.808594-4.734375-7.757813-9.269531-11.832031-13.601563l4.699218-49.652343c.484376-5.117188-1.21875-10.230469-4.679687-14.03125-3.457031-3.800781-8.386719-5.980469-13.527344-5.980469-7.582031 0-14.269531 4.5625-17.03125 11.628906l-9.722656 24.859375c-23.117187-14.117187-47.726563-21.488281-72.207031-21.488281-25.703125 0-50.113282 7.964844-72.214844 21.476562l-9.71875-24.847656c-2.761719-7.066406-9.449219-11.628906-17.03125-11.628906-5.140625 0-10.070312 2.179688-13.527344 5.980469-3.460937 3.800781-5.164062 8.914062-4.679687 14.03125l4.695312 49.601562c-4.101562 4.359375-8.054687 8.910157-11.855469 13.628907l-95.886718-78.304688c-3.902344-3.183594-8.824219-4.9375-13.859375-4.9375-7.453125 0-14.320313 3.730469-18.378907 9.980469-4.054687 6.253906-4.664062 14.046875-1.628906 20.851562l29.539063 66.210938c.707031 1.585937.789062 3.363281.242187 5.007812l-28.894531 86.339844c-2.7773438 8.296875-.503906 17.132813 5.929687 23.0625 6.433594 5.925781 15.429688 7.46875 23.472657 4.027344l7.820312-3.351563c3.058594-1.308594 6.621094-.25 8.464844 2.519532l27.847656 41.792968c3.527344 28.984375 14.765625 53.152344 33.582031 72.230469-3.277343 24-7.507812 51.144531-12.578124 80.699219-.699219 4.082031 2.042968 7.960937 6.125 8.660156.429687.074219.855468.109375 1.277343.109375 3.585938 0 6.753907-2.582031 7.382813-6.234375 4.421875-25.769531 8.207031-49.726562 11.285156-71.398438 1.871094 1.421876 3.789062 2.8125 5.769531 4.160157 12.3125 8.390625 26.71875 15.195312 42.898438 20.34375-4.734375 57.59375-10.46875 113.207031-12.445313 131.988281h-63.195312c2.183594-11.066406 6.140625-31.472656 10.632812-56.386719.734375-4.074219-1.972656-7.976562-6.050781-8.710937-4.074219-.734375-7.976563 1.972656-8.710937 6.050781-6.769532 37.535156-12.3125 64.777344-12.367188 65.046875-.449219 2.207031.117188 4.5 1.542969 6.242188 1.425781 1.746093 3.554687 2.757812 5.808593 2.757812h79.078126.015624.023438 179.179688.019531.019531 79.074219c2.253906 0 4.386719-1.011719 5.8125-2.757812 1.421875-1.742188 1.988281-4.035157 1.539062-6.242188-.1875-.917969-18.835937-92.742188-29.976562-174.328125 18.816406-19.074219 30.058593-43.246094 33.582031-72.230469l27.847656-41.792968c1.847656-2.769532 5.40625-3.828126 8.46875-2.515626l7.816406 3.347657c8.046876 3.445312 17.035157 1.902343 23.472657-4.027344 6.433593-5.929687 8.707031-14.765625 5.929687-23.0625zm-128.402344-84.957031c.496094-1.273438 1.699219-2.09375 3.0625-2.09375 1.265625 0 2.066407.675781 2.433594 1.074219.367187.402343.960937 1.265625.839844 2.523437l-3.5625 37.636719c-2.335938-2.074219-4.695313-4.109375-7.097657-6.050781-2.183593-1.769532-4.394531-3.464844-6.617187-5.109375zm-197.296875-1.019531c.367188-.398438 1.167969-1.074219 2.433594-1.074219 1.363281 0 2.5625.820312 3.0625 2.089844l10.9375 27.972656c-4.699219 3.46875-9.273438 7.183594-13.714844 11.128906l-3.558594-37.59375c-.121093-1.257812.476563-2.121094.839844-2.523437zm-120.488281 182.269531-7.816406 3.347656c-3.8125 1.632813-6.628907-.558594-7.402344-1.269531-.769531-.710937-3.1875-3.335937-1.867187-7.273437l28.890624-86.335938c1.746094-5.21875 1.472657-10.855469-.769531-15.878906l-29.535156-66.210938c-.972656-2.179687-.785156-4.574218.515625-6.574218 1.296875-2 3.410156-3.148438 5.792969-3.148438 1.589843 0 3.140625.554688 4.371093 1.558594l96.324219 78.664062c-27.851562 39.242188-45.417969 87.613282-47.3125 132.617188l-14.332031-21.507813c-5.855469-8.789062-17.152344-12.144531-26.859375-7.988281zm152.679687 170.777344c20.777344 5.035156 44.019532 7.632812 69.203126 7.632812 25.1875 0 48.429687-2.59375 69.207031-7.632812 4.574219 55.167968 9.988281 107.984375 12.078125 127.878906h-162.566406c2.089843-19.894531 7.503906-72.714844 12.078124-127.878906zm165.570313 127.878906c-1.980469-18.78125-7.710937-74.394531-12.449219-131.984375 16.183594-5.152344 30.585938-11.957031 42.902344-20.34375 1.976562-1.347656 3.894531-2.742187 5.765625-4.164063 9.152344 64.371094 22.242187 132.480469 26.980469 156.492188zm140.738281-296.578125c-.773437.710937-3.589844 2.902344-7.402344 1.269531l-7.816406-3.347656c-9.707031-4.160156-21.003906-.800781-26.859375 7.988281l-14.332031 21.511719c-.945312-21.949219-5.6875-45.359375-13.878906-68.230469-1.398438-3.902343-5.691406-5.929687-9.589844-4.53125-3.902344 1.394531-5.929688 5.6875-4.53125 9.589844 8.625 24.078125 13.183594 48.703125 13.183594 71.207031 0 42.488282-15.980469 74.921875-47.503906 96.394532-28.308594 19.285156-69.238282 29.480468-118.371094 29.480468-49.132813 0-90.066406-10.195312-118.375-29.480468-31.519532-21.472657-47.5-53.90625-47.5-96.394532 0-45.777344 18.414062-97.390625 49.253906-138.066406 13.472656-17.765625 28.308594-32.289062 43.996094-43.273438.710937-.339843 1.347656-.773437 1.898437-1.289062 22.386719-15.207031 46.449219-23.25 70.726563-23.25 38.753906 0 72.335937 19.726562 98.632812 46.789062.398438.542969.867188 1.035157 1.398438 1.457032 17.628906 18.496094 31.902344 40.253906 42.160156 61.4375 1.804688 3.726562 6.289062 5.285156 10.019531 3.480468 3.726563-1.804687 5.285157-6.292968 3.480469-10.019531-6.527344-13.476562-14.039062-26.164062-22.351562-37.898437l96.363281-78.6875c1.230469-1.003906 2.78125-1.558594 4.367187-1.558594 2.386719 0 4.5 1.144531 5.796875 3.148438 1.296875 2 1.484375 4.394531.511719 6.570312l-29.53125 66.214844c-2.242188 5.019531-2.515625 10.660156-.769531 15.875l28.890625 86.339844c1.320312 3.9375-1.097656 6.5625-1.867188 7.273437zm0 0"/><path d="m255.996094 174.824219c-40.710938 0-93.402344 18.296875-111.121094 48.914062-8.359375 14.449219-8.183594 30.082031.515625 45.210938 10.421875 18.132812 24.257813 26.945312 42.304687 26.945312h.160157c9.769531 33.621094 16.652343 40.605469 24.40625 40.605469 8.011719 0 13.121093-8.953125 17.292969-19.40625 7.925781 4.382812 17.050781 6.738281 26.441406 6.738281 9.402344 0 18.515625-2.359375 26.4375-6.746093 4.171875 10.460937 9.28125 19.414062 17.292968 19.414062 7.753907 0 14.636719-6.984375 24.40625-40.605469h.164063c18.042969 0 31.882813-8.8125 42.300781-26.945312 8.699219-15.128907 8.875-30.761719.515625-45.210938-17.71875-30.617187-70.410156-48.914062-111.117187-48.914062zm-53.023438 119.308593c6.773438-1.421874 13.550782-3.511718 20.199219-5.578124-4.992187 17.734374-8.710937 26.25-10.90625 30.242187-1.949219-3.546875-5.101563-10.671875-9.292969-24.664063zm31.648438 8.511719c2.082031-6.613281 3.933594-13.316406 5.398437-18.925781 5.496094-1.308594 10.886719-2.195312 15.976563-2.195312 5.085937 0 10.476562.886718 15.972656 2.195312 1.464844 5.609375 3.320312 12.3125 5.398438 18.925781-6.179688 4.007813-13.617188 6.1875-21.371094 6.1875-7.746094 0-15.195313-2.179687-21.375-6.1875zm65.101562 16.152344c-2.199218-3.992187-5.914062-12.507813-10.910156-30.238281 6.652344 2.0625 13.429688 4.15625 20.199219 5.574218-4.191407 13.992188-7.339844 21.117188-9.289063 24.664063zm53.871094-57.320313c-9.894531 17.214844-20.855469 19.421876-29.300781 19.421876-9.558594 0-20.121094-3.277344-31.300781-6.75-12.074219-3.746094-24.558594-7.621094-37-7.621094-12.441407 0-24.925782 3.875-36.996094 7.621094-11.183594 3.472656-21.742188 6.75-31.304688 6.75-8.441406 0-19.402344-2.207032-29.296875-19.421876-6.046875-10.515624-6.21875-20.402343-.539062-30.226562 13.21875-22.84375 57.242187-41.425781 98.136719-41.425781 40.894531 0 84.917968 18.582031 98.136718 41.425781 5.683594 9.824219 5.507813 19.710938-.535156 30.226562zm0 0"/></svg>