<svg height="511pt" viewBox="-42 1 511 511.999" width="511pt" xmlns="http://www.w3.org/2000/svg"><path d="m348.675781 231.660156h60.566407c5.695312 0 10.308593-4.617187 10.308593-10.3125v-50.253906c0-5.695312-4.613281-10.308594-10.308593-10.308594h-60.566407zm0 0" fill="#495560"/><path d="m47.371094 504.5c0-91.902344 74.503906-166.402344 166.40625-166.402344s166.402344 74.5 166.402344 166.402344zm0 0" fill="#495560"/><path d="m234.398438 339.367188c-6.757813-.835938-13.640626-1.269532-20.621094-1.269532-91.902344 0-166.40625 74.5-166.40625 166.402344h41.246094c0-84.917969 63.609374-154.976562 145.78125-165.132812zm0 0" fill="#3d4751"/><path d="m96.523438 386.429688h34.148437c9.628906 0 17.433594 7.804687 17.433594 17.433593 0 9.628907 7.804687 17.4375 17.433593 17.4375h96.476563c9.628906 0 17.433594-7.808593 17.433594-17.4375 0-9.625 7.804687-17.433593 17.433593-17.433593h34.148438c-30.082031-29.871094-71.507812-48.332032-117.253906-48.332032-45.742188 0-87.171875 18.460938-117.253906 48.332032zm0 0" fill="#3d4751"/><path d="m136.6875 387.519531c25.613281-25.910156 59.671875-43.449219 97.714844-48.152343-6.757813-.835938-13.640625-1.269532-20.625-1.269532-45.742188 0-87.171875 18.460938-117.253906 48.332032h34.148437c2.117187 0 4.136719.398437 6.015625 1.089843zm0 0" fill="#333941"/><path d="m78.875 196.222656c0 19.570313-15.867188 35.4375-35.4375 35.4375s-35.4375-15.867187-35.4375-35.4375c0-19.574218 15.867188-35.441406 35.4375-35.441406s35.4375 15.867188 35.4375 35.441406zm0 0" fill="#00aede"/><path d="m392.546875 186.273438c0 98.730468-80.039063 178.769531-178.769531 178.769531-98.734375 0-178.773438-80.039063-178.773438-178.769531 0-98.734376 80.039063-178.773438 178.773438-178.773438 98.730468 0 178.769531 80.039062 178.769531 178.773438zm0 0" fill="#546370"/><path d="m35.003906 186.273438c0 29.023437 6.917969 56.433593 19.195313 80.667968 24.703125 48.769532 98.53125 30.675782 98.53125-23.996094 0-16.855468 13.664062-30.523437 30.523437-30.523437s30.523438-13.660156 30.523438-30.515625c0-43.972656 0-125.253906 0-174.40625-98.734375 0-178.773438 80.039062-178.773438 178.773438zm0 0" fill="#59c2e8"/><path d="m76.25 186.273438c0-91.757813 69.132812-167.355469 158.148438-177.582032-6.765626-.777344-13.644532-1.191406-20.621094-1.191406-98.734375 0-178.773438 80.039062-178.773438 178.773438 0 98.730468 80.039063 178.769531 178.773438 178.769531 6.976562 0 13.855468-.410157 20.621094-1.191407-89.015626-10.222656-158.148438-85.824218-158.148438-177.578124zm0 0" fill="#495560"/><path d="m76.25 186.273438c0-84.539063 58.679688-155.363282 137.527344-173.984376 0-1.625 0-3.226562 0-4.789062-98.734375 0-178.773438 80.039062-178.773438 178.773438 0 29.023437 6.917969 56.433593 19.195313 80.667968 12.257812 24.199219 36.609375 31.929688 58.035156 26.90625-22.585937-29.933594-35.984375-67.1875-35.984375-107.574218zm0 0" fill="#34b6e2"/><path d="m331.003906 204.390625c0 22.78125-18.464844 41.246094-41.246094 41.246094-22.777343 0-41.242187-18.464844-41.242187-41.246094 0-22.777344 18.464844-41.246094 41.242187-41.246094 22.78125 0 41.246094 18.46875 41.246094 41.246094zm0 0" fill="#29ce69"/><path d="m279.449219 204.390625c0-17.304687 10.664062-32.117187 25.777343-38.234375-4.777343-1.933594-9.996093-3.011719-15.46875-3.011719-22.777343 0-41.246093 18.46875-41.246093 41.246094 0 22.78125 18.46875 41.246094 41.246093 41.246094 5.472657 0 10.691407-1.074219 15.46875-3.011719-15.113281-6.117188-25.777343-20.925781-25.777343-38.234375zm0 0" fill="#00c755"/><path d="m137.792969 217.746094c-4.140625 0-7.5-3.359375-7.5-7.5v-11.710938c0-4.140625 3.359375-7.5 7.5-7.5 4.144531 0 7.5 3.359375 7.5 7.5v11.710938c0 4.140625-3.355469 7.5-7.5 7.5zm0 0"/><path d="m228.917969 474.082031h-30.285157c-2.554687 0-4.722656-1.871093-5.097656-4.398437l-10.292968-69.480469c-.460938-3.113281 1.953124-5.910156 5.097656-5.910156h50.871094c3.148437 0 5.5625 2.796875 5.101562 5.910156l-10.292969 69.480469c-.375 2.527344-2.542969 4.398437-5.101562 4.398437zm0 0" fill="#29ce69"/><path d="m214.15625 469.683594-10.292969-69.480469c-.460937-3.113281 1.953125-5.910156 5.101563-5.910156h-20.625c-3.144532 0-5.558594 2.796875-5.097656 5.910156l10.292968 69.480469c.375 2.527344 2.542969 4.398437 5.097656 4.398437h20.621094c-2.554687 0-4.722656-1.871093-5.097656-4.398437zm0 0" fill="#00c755"/><path d="m409.242188 153.28125h-12.121094c-15.617188-87.027344-91.886719-153.28125-183.34375-153.28125-92.203125 0-168.957032 67.339844-183.703125 155.414062-17.394531 5.703126-29.574219 22.144532-29.574219 40.808594 0 20.542969 14.734375 38.078125 34.40625 42.070313 3.148438 10.8125 7.257812 21.222656 12.222656 31.132812.109375.304688.230469.609375.378906.90625.539063 1.0625 1.109376 2.097657 1.699219 3.113281 17.992188 33.832032 46.105469 61.496094 80.285157 78.910157-14.132813 7.839843-26.929688 17.515625-38.140626 28.652343-.074218.070313-.148437.144532-.21875.21875-32.199218 32.097657-51.261718 76.238282-51.261718 123.273438 0 4.140625 3.359375 7.5 7.5 7.5h332.808594c4.144531 0 7.5-3.359375 7.5-7.5 0-16.429688-2.289063-32.691406-6.804688-48.335938-1.148438-3.980468-5.308594-6.277343-9.289062-5.125-3.976563 1.148438-6.273438 5.308594-5.125 9.285157 3.441406 11.90625 5.464843 24.210937 6.046874 36.675781h-317.457031c1.847657-39.15625 18.121094-75.667969 44.621094-103.070312h31c5.476563 0 9.933594 4.457031 9.933594 9.933593 0 13.75 11.183593 24.933594 24.933593 24.933594h14.355469l6.21875 41.984375c.914063 6.15625 6.296875 10.800781 12.519531 10.800781h30.285157c6.226562 0 11.609375-4.644531 12.519531-10.800781l6.21875-41.984375h14.359375c13.746094 0 24.933594-11.183594 24.933594-24.933594 0-5.476562 4.457031-9.933593 9.933593-9.933593h31.007813c11.566406 11.933593 21.292969 25.679687 28.6875 40.785156 1.304687 2.65625 3.96875 4.203125 6.742187 4.203125 1.105469 0 2.230469-.246094 3.292969-.765625 3.71875-1.824219 5.257813-6.316406 3.4375-10.035156-8.566406-17.5-19.992187-33.328126-33.640625-46.90625-.0625-.0625-.121094-.121094-.183594-.183594-11.3125-11.21875-24.148437-20.890625-38.167968-28.671875 45.132812-22.996094 79.695312-63.855469 94.332031-113.199219h16.851563c9.824218 0 17.8125-7.988281 17.8125-17.808594v-50.253906c0-9.820312-7.992188-17.8125-17.8125-17.8125zm-393.742188 42.941406c0-9.542968 4.902344-18.175781 12.484375-23.246094-.3125 4.394532-.480469 8.824219-.480469 13.296876 0 11.90625 1.136719 23.546874 3.28125 34.839843-9.082031-4.652343-15.285156-14.136719-15.285156-24.890625zm211.398438 270.359375h-26.242188l-9.597656-64.789062h45.4375zm84.265624-87.652343h-14.28125c-13.75 0-24.933593 11.1875-24.933593 24.933593 0 5.480469-4.457031 9.9375-9.933594 9.9375h-12.136719l1.851563-12.496093c.539062-3.644532-.53125-7.335938-2.9375-10.125-2.40625-2.789063-5.898438-4.386719-9.582031-4.386719h-50.871094c-3.683594 0-7.175782 1.601562-9.582032 4.386719-2.40625 2.789062-3.476562 6.480468-2.9375 10.125l1.851563 12.496093h-12.132813c-5.480468 0-9.9375-4.457031-9.9375-9.9375 0-13.746093-11.183593-24.933593-24.933593-24.933593h-14.273438c9.390625-7.296876 19.6875-13.59375 30.757813-18.710938 20.699218 7.953125 43.15625 12.324219 66.621094 12.324219 23.472656 0 45.9375-4.375 66.640624-12.332031 10.976563 5.078124 21.289063 11.371093 30.75 18.71875zm-97.386718-21.386719c-50.128906 0-95.292969-21.644531-126.644532-56.082031 4.121094.878906 8.359376 1.335937 12.628907 1.335937 4.820312 0 9.679687-.5625 14.4375-1.699219 22.914062-5.476562 46.03125-25.578125 46.03125-58.152344 0-12.691406 10.328125-23.023437 23.023437-23.023437 20.964844 0 38.023438-17.054687 38.023438-38.015625v-73.25c0-4.144531-3.359375-7.5-7.5-7.5s-7.5 3.355469-7.5 7.5v73.25c0 12.691406-10.328125 23.015625-23.023438 23.015625-20.964844 0-38.023437 17.058594-38.023437 38.023437 0 26.066407-18.59375 39.757813-34.515625 43.5625-15.09375 3.601563-36.410156.269532-48.378906-20.3125-12.652344-23.875-19.832032-51.074218-19.832032-79.925781 0-91.925781 72.800782-167.15625 163.773438-171.097656v65.65625c0 4.144531 3.359375 7.5 7.5 7.5s7.5-3.355469 7.5-7.5v-65.652344c90.972656 3.9375 163.773437 79.171875 163.773437 171.097657-.003906 94.4375-76.835937 171.269531-171.273437 171.269531zm198.277344-136.195313c0 1.550782-1.261719 2.8125-2.8125 2.8125h-13.070313c2.539063-12.238281 3.875-24.910156 3.875-37.886718 0-6.070313-.300781-12.070313-.871094-17.992188h10.066407c1.550781 0 2.8125 1.261719 2.8125 2.8125zm0 0"/><path d="m289.757812 155.644531c-26.878906 0-48.746093 21.867188-48.746093 48.746094s21.867187 48.746094 48.746093 48.746094c26.878907 0 48.746094-21.867188 48.746094-48.746094s-21.867187-48.746094-48.746094-48.746094zm0 82.492188c-18.605468 0-33.746093-15.140625-33.746093-33.746094 0-18.609375 15.140625-33.746094 33.746093-33.746094 18.609376 0 33.746094 15.136719 33.746094 33.746094 0 18.605469-15.136718 33.746094-33.746094 33.746094zm0 0"/></svg>